<svg xmlns="http://www.w3.org/2000/svg" viewBox="0 0 512 512" shape-rendering="geometricPrecision">
  <rect width="512" height="512" fill="#0063e2"/>

  <!-- F (top-left quadrant 56-246 × 56-246) -->
  <path d="M 56 56 H 246 V 96 H 116 V 120 H 210 V 152 H 116 V 246 H 56 Z" fill="#ffffff"/>

  <!-- ↗ arrow (top-right quadrant 266-456 × 56-246) -->
  <polygon points="456,56 456,214 393,214 393,167 313,246 266,198 345,119 298,119 298,56" fill="#ffffff"/>

  <!-- D (bottom-left quadrant 56-246 × 266-456) -->
  <path d="M 56 266 H 156 C 220 266 246 308 246 361 C 246 414 220 456 156 456 H 56 Z
           M 116 326 H 156 C 186 326 196 344 196 361 C 196 378 186 396 156 396 H 116 Z"
        fill="#ffffff" fill-rule="evenodd"/>

  <!-- L (bottom-right quadrant 266-456 × 266-456) -->
  <path d="M 266 266 H 320 V 396 H 456 V 456 H 266 Z" fill="#ffffff"/>
</svg>
