<?xml version="1.0" encoding="UTF-8"?>
<svg version="1.1" xmlns="http://www.w3.org/2000/svg" width="1080" height="1080">
<path d="M0 0 C356.4 0 712.8 0 1080 0 C1080 356.4 1080 712.8 1080 1080 C723.6 1080 367.2 1080 0 1080 C0 723.6 0 367.2 0 0 Z " fill="#0063E2" transform="translate(0,0)"/>
<path d="M0 0 C40.92 -0.061875 81.84 -0.12375 124 -0.1875 C136.82359375 -0.21481201 149.6471875 -0.24212402 162.859375 -0.27026367 C178.765625 -0.28381348 178.765625 -0.28381348 186.25976562 -0.28633118 C191.3893642 -0.2890771 196.51886545 -0.30011706 201.6484375 -0.31672668 C228.16305217 -0.3985799 254.60465236 -0.28122714 281.078125 1.33081055 C282.07875725 1.38922611 283.0793895 1.44764167 284.11034393 1.5078274 C310.07171549 3.07171549 310.07171549 3.07171549 314 7 C315.155 7.165 316.31 7.33 317.5 7.5 C321 8 321 8 322 9 C323.010625 9.12375 324.02125 9.2475 325.0625 9.375 C329.42414815 10.0673251 332.91628811 11.35218643 337 13 C337 13.66 337 14.32 337 15 C337.70125 14.95875 338.4025 14.9175 339.125 14.875 C342.92482853 15.04020994 346.65190938 15.57032465 349.35546875 18.4375 C351.44833366 20.42597022 353.49517574 21.17350774 356.1875 22.1875 C357.53908203 22.70376953 357.53908203 22.70376953 358.91796875 23.23046875 C359.94857422 23.61138672 359.94857422 23.61138672 361 24 C361 24.99 361 25.98 361 27 C361.515625 27.2475 362.03125 27.495 362.5625 27.75 C367.74162019 30.40595907 372.67246711 33.06587919 377 37 C377 37.66 377 38.32 377 39 C377.66 39 378.32 39 379 39 C379.33 39.66 379.66 40.32 380 41 C381.2065625 41.680625 381.2065625 41.680625 382.4375 42.375 C385.17765768 44.11266097 385.74967178 45.11462718 387 48 C387.66 48.33 388.32 48.66 389 49 C389 49.66 389 50.32 389 51 C389.66 51 390.32 51 391 51 C391 51.66 391 52.32 391 53 C391.66 53 392.32 53 393 53 C395.29648649 55.5614657 396 56.47967572 396 60 C396.66 60 397.32 60 398 60 C401.35334727 63.00941422 403.97985139 65.95970278 406 70 C406 70.99 406 71.98 406 73 C406.99 73.33 407.98 73.66 409 74 C410.16796875 75.92578125 410.16796875 75.92578125 411.1875 78.3125 C411.70376953 79.48232422 411.70376953 79.48232422 412.23046875 80.67578125 C413 83 413 83 413 87 C413.99 87 414.98 87 416 87 C416.21934204 87.94637329 416.21934204 87.94637329 416.44311523 88.91186523 C417.10417974 91.75462617 417.77076362 94.59606425 418.4375 97.4375 C418.78264648 98.92733398 418.78264648 98.92733398 419.13476562 100.44726562 C419.35712891 101.39150391 419.57949219 102.33574219 419.80859375 103.30859375 C420.11494751 104.62041626 420.11494751 104.62041626 420.42749023 105.95874023 C420.81380362 107.97709773 420.81380362 107.97709773 422 109 C422.3540813 111.13936518 422.65742783 113.28719385 422.9375 115.4375 C423.47301524 119.53711665 424.0993907 123.54342619 424.96484375 127.5859375 C428.2159129 143.50543524 429.94400032 160.75325769 429 177 C428.92023926 178.51255371 428.92023926 178.51255371 428.83886719 180.05566406 C428.64213887 183.62199537 428.41967707 187.18580692 428.1875 190.75 C428.11764893 191.88775879 428.04779785 193.02551758 427.97583008 194.19775391 C427.50864304 200.5747407 426.57672323 206.4022274 424.66333008 212.51025391 C423.93711983 215.2360147 423.67955433 217.81361137 423.5 220.625 C423.15174654 225.77470539 421.87995726 230.21142963 420 235 C419.34 235 418.68 235 418 235 C418 236.32 418 237.64 418 239 C417.34 239 416.68 239 416 239 C415.9175 239.78375 415.835 240.5675 415.75 241.375 C414.76403783 246.14048382 413.17558046 250.64062934 411 255 C410.34 255.33 409.68 255.66 409 256 C407.95281202 258.31254012 406.95653635 260.6485148 406 263 C405.34711373 264.34013497 404.68774405 265.67741528 404 267 C403.01 267 402.02 267 401 267 C400.71125 268.093125 400.4225 269.18625 400.125 270.3125 C399 274 399 274 397 277 C396.01 277 395.02 277 394 277 C393.77054688 277.55816406 393.54109375 278.11632812 393.3046875 278.69140625 C391.64624479 281.62595608 389.55108478 283.60140353 387.125 285.9375 C384.49047455 288.48158652 382.05792949 290.92568121 379.8046875 293.81640625 C379.20914062 294.53699219 378.61359375 295.25757813 378 296 C377.34 296 376.68 296 376 296 C376 296.66 376 297.32 376 298 C374.35 298.66 372.7 299.32 371 300 C371 300.99 371 301.98 371 303 C365.72337209 306.91491748 358.53919256 310.15623322 352 311 C352 311.66 352 312.32 352 313 C350.61217515 313.8466034 349.21430603 314.67675339 347.8125 315.5 C347.03519531 315.9640625 346.25789063 316.428125 345.45703125 316.90625 C342.75896614 318.10729647 340.9193018 318.20741043 338 318 C338 318.99 338 319.98 338 321 C335.44342265 322.34588326 332.88076095 323.67675328 330.3125 325 C329.59126953 325.3815625 328.87003906 325.763125 328.12695312 326.15625 C324.29453447 328.1162084 321.42628851 329.55874253 317 329 C317 329.66 317 330.32 317 331 C315.865625 331.144375 314.73125 331.28875 313.5625 331.4375 C310.19222799 331.61171478 310.19222799 331.61171478 309 333 C306.42102306 333.32237212 303.84068179 333.51267304 301.25 333.71875 C299.03334648 333.76200665 299.03334648 333.76200665 298 335 C296.48071962 335.07179964 294.95832518 335.08392007 293.4375 335.0625 C292.61121094 335.05347656 291.78492188 335.04445313 290.93359375 335.03515625 C290.29550781 335.02355469 289.65742188 335.01195312 289 335 C289 335.99 289 336.98 289 338 C288.2678125 338.03738281 287.535625 338.07476563 286.78125 338.11328125 C281.08941443 338.45885698 275.46305912 338.90418639 269.81817436 339.71085739 C254.95688027 341.82860391 240.44553429 342.42003723 225.44970703 342.35644531 C222.99624051 342.35723867 220.54277413 342.35934352 218.08930969 342.36264038 C212.18830798 342.36719099 206.2874263 342.3581098 200.38645299 342.34235242 C193.50260598 342.32462486 186.61878304 342.32338941 179.73491679 342.32273683 C167.46159585 342.32105924 155.18833475 342.30536183 142.91503906 342.28125 C131.01561994 342.25788994 119.11623874 342.24380838 107.21679688 342.24023438 C106.48047115 342.24001161 105.74414542 342.23978884 104.98550679 342.23955932 C103.50204961 342.23911671 102.01859244 342.23867469 100.53513526 342.23823325 C99.8033078 342.23801369 99.07148033 342.23779412 98.31747627 342.2375679 C97.58744233 342.23735192 96.85740839 342.23713593 96.10525221 342.2369134 C84.73190033 342.23321856 73.3585545 342.22186898 61.98520926 342.2094375 C57.86918118 342.20500378 53.75315367 342.20156506 49.63712414 342.19881538 C42.51844678 342.19397944 35.39979596 342.18389128 28.28113365 342.16798782 C25.91472195 342.16345346 23.54830631 342.16062349 21.18189049 342.15958023 C17.96523493 342.15784318 14.7486534 342.14998385 11.53201294 342.14044189 C10.58536337 342.14130838 9.6387138 342.14217486 8.66337788 342.1430676 C7.80683106 342.13922645 6.95028424 342.13538531 6.06778145 342.13142776 C5.32514773 342.13018127 4.58251402 342.12893477 3.81737626 342.1276505 C2 342 2 342 0 341 C0 228.47 0 115.94 0 0 Z " fill="#FEFEFE" transform="translate(148,606)"/>
<path d="M0 0 C120.78 0 241.56 0 366 0 C366 34.32 366 68.64 366 104 C282.84 104.33 199.68 104.66 114 105 C114 115.23 114 125.46 114 136 C115.96956755 137.96956755 119.83066933 137.15473398 122.52320862 137.15821838 C123.32035575 137.16315636 124.11750289 137.16809434 124.938806 137.17318195 C127.63050712 137.18863427 130.32218426 137.19693837 133.01391602 137.20532227 C134.93522353 137.21489472 136.85652891 137.22490442 138.77783203 137.23532104 C144.01106339 137.26244473 149.24430384 137.28341375 154.47756696 137.30332303 C159.94021606 137.32513672 165.40283691 137.35254792 170.86546326 137.37937927 C181.21750177 137.4293688 191.56955591 137.47428432 201.92162508 137.51740164 C215.90488705 137.57593421 229.88811191 137.64225457 243.87134075 137.70815182 C265.91420219 137.81182439 287.95709527 137.90504844 310 138 C310 170.34 310 202.68 310 236 C244.99 236 179.98 236 113 236 C113 270.98 113 305.96 113 342 C75.71 342 38.42 342 0 342 C0 229.14 0 116.28 0 0 Z " fill="#FEFEFE" transform="translate(148,172)"/>
<path d="M0 0 C2.51710469 -0.37374616 2.51710469 -0.37374616 5.77185154 -0.3719368 C7.00833897 -0.37852664 8.2448264 -0.38511649 9.51878315 -0.39190602 C10.90351995 -0.3840368 12.28825519 -0.37588892 13.67298889 -0.36749268 C15.13418397 -0.36951526 16.59537773 -0.37285255 18.05656713 -0.37739825 C22.08635785 -0.38608249 26.11591972 -0.37594754 30.14569056 -0.36285591 C34.48587015 -0.35199422 38.82602771 -0.35836503 43.16621399 -0.36264038 C51.67408325 -0.36828512 60.1818627 -0.35793763 68.68971664 -0.34235242 C78.5871805 -0.32485241 88.4846267 -0.323394 98.38210361 -0.32273683 C116.03511003 -0.32104724 133.68807541 -0.3052133 151.34106445 -0.28125 C168.49048198 -0.25798701 185.63987347 -0.243825 202.78930664 -0.24023438 C204.37376502 -0.23990022 204.37376502 -0.23990022 205.99023265 -0.23955932 C208.11802045 -0.23911674 210.24580824 -0.23867471 212.37359604 -0.23823325 C213.94784025 -0.2379039 213.94784025 -0.2379039 215.55388737 -0.2375679 C216.60064809 -0.23735192 217.64740882 -0.23713593 218.72588957 -0.2369134 C235.04175988 -0.23321645 251.35762596 -0.22185675 267.67349165 -0.2094375 C273.59751933 -0.20499555 279.52154661 -0.20156005 285.4455753 -0.19881538 C294.84026905 -0.19439091 304.23494721 -0.18664595 313.62963111 -0.17204097 C317.92536194 -0.16541503 322.22107896 -0.16036502 326.51681519 -0.15958023 C330.44278357 -0.15879741 334.36871694 -0.15343131 338.29467445 -0.14426073 C339.72126973 -0.14173775 341.14786919 -0.14092541 342.57446636 -0.14191952 C344.50097697 -0.14300347 346.42748801 -0.13742509 348.3539896 -0.13142776 C349.96484577 -0.12955802 349.96484577 -0.12955802 351.60824448 -0.1276505 C354 0 354 0 355 1 C355.09840337 2.81307547 355.12555631 4.63003403 355.12584114 6.44577789 C355.12975276 8.22959625 355.12975276 8.22959625 355.13374341 10.04945135 C355.13158089 11.38603575 355.12932421 12.72262 355.12698364 14.0592041 C355.1281345 15.4659118 355.12972178 16.8726192 355.13171089 18.27932596 C355.13590909 22.16308075 355.13381132 26.04681116 355.13072467 29.93056607 C355.12847277 34.11193083 355.13194913 38.29329124 355.13470459 42.47465515 C355.13916355 50.67314643 355.13818526 58.87162857 355.13529195 67.07012022 C355.13303841 73.73008193 355.13272518 80.39004107 355.13381577 87.05000305 C355.133969 87.99597702 355.13412223 88.94195099 355.13428011 89.91659084 C355.13459982 91.83800058 355.13492403 93.75941031 355.1352527 95.68082005 C355.13810786 113.7202884 355.13481991 131.75975167 355.12945233 149.79921919 C355.12498426 165.29567341 355.12576018 180.79212014 355.13037109 196.28857422 C355.13571622 214.26116544 355.13783316 232.23375222 355.13475883 250.20634413 C355.13444026 252.12089507 355.13412589 254.03544601 355.13381577 255.94999695 C355.13366149 256.89212285 355.13350721 257.83424875 355.13334826 258.80492392 C355.13248292 265.46095887 355.13394635 272.116991 355.13629532 278.77302551 C355.13909284 286.87865749 355.13835608 294.98427977 355.13301457 303.08991063 C355.13037691 307.22969161 355.12937359 311.36945641 355.13266373 315.50923729 C355.13562536 319.29275911 355.13403613 323.07624962 355.12868617 326.85976857 C355.12756141 328.23457883 355.12815446 329.60939169 355.13056196 330.9842003 C355.13356596 332.84087247 355.12991251 334.69755197 355.12584114 336.55422211 C355.12567879 337.58917737 355.12551644 338.62413264 355.12534916 339.69045019 C355 342 355 342 354 343 C351.35799939 343.10043271 348.7421141 343.1361685 346.09960938 343.12939453 C344.85821953 343.13202301 344.85821953 343.13202301 343.5917511 343.13470459 C340.84239638 343.13912393 338.09310543 343.13618483 335.34375 343.1328125 C333.44185371 343.13348552 331.53995751 343.13445552 329.63806152 343.13571167 C325.64655745 343.13718875 321.65507571 343.13503375 317.66357422 343.13037109 C312.53509493 343.1246738 307.40666798 343.12795275 302.27819061 343.13394356 C298.34925946 343.13754889 294.42034082 343.13641072 290.4914093 343.13381577 C288.59987888 343.13314642 286.70834735 343.13397519 284.81681824 343.13629532 C282.17797823 343.13882138 279.53922419 343.13498191 276.90039062 343.12939453 C275.71592094 343.13243088 275.71592094 343.13243088 274.50752258 343.13552856 C269.11426251 343.11426251 269.11426251 343.11426251 268 342 C267.90228493 339.52108029 267.87004043 337.07005223 267.87974548 334.59068298 C267.87846385 333.41333827 267.87846385 333.41333827 267.87715632 332.21220881 C267.87549913 329.56194141 267.88102676 326.91173625 267.88647461 324.26147461 C267.88675646 322.36972556 267.8865988 320.4779764 267.8860321 318.58622742 C267.88574403 313.4335489 267.89164235 308.28089345 267.89860606 303.12822032 C267.90483796 297.74967104 267.90544327 292.3711213 267.90663147 286.99256897 C267.90974527 276.79988176 267.91795931 266.60720521 267.92798096 256.41452271 C267.93914059 244.81375432 267.94465217 233.21298543 267.94967639 221.61221302 C267.96014189 197.74146942 267.97774227 173.87073531 268 150 C267.34 150 266.68 150 266 150 C266 150.66 266 151.32 266 152 C265.01 152 264.02 152 263 152 C262.34 153.32 261.68 154.64 261 156 C260.01 156 259.02 156 258 156 C257.731875 156.598125 257.46375 157.19625 257.1875 157.8125 C256.00082594 159.99847854 254.90400887 161.41332594 253 163 C252.34 163 251.68 163 251 163 C250.731875 163.598125 250.46375 164.19625 250.1875 164.8125 C249.00082594 166.99847854 247.90400887 168.41332594 246 170 C245.34 170 244.68 170 244 170 C243.731875 170.598125 243.46375 171.19625 243.1875 171.8125 C242.00082594 173.99847854 240.90400887 175.41332594 239 177 C238.34 177 237.68 177 237 177 C236.71125 177.639375 236.4225 178.27875 236.125 178.9375 C235 181 235 181 233 182 C232.54882812 182.75434326 232.09765625 183.50868652 231.6328125 184.28588867 C228.83148501 188.94234169 224.83166076 192.4959008 221 196.3125 C220.18015625 197.14845703 219.3603125 197.98441406 218.515625 198.84570312 C217.72671875 199.63525391 216.9378125 200.42480469 216.125 201.23828125 C215.40570312 201.96055908 214.68640625 202.68283691 213.9453125 203.42700195 C212 205 212 205 209 205 C208.7525 205.721875 208.505 206.44375 208.25 207.1875 C205.74111641 212.83248807 201.71316028 216.15252222 197 220 C195.31288577 221.6459651 193.6454378 223.31237149 192 225 C191.175 225.804375 190.35 226.60875 189.5 227.4375 C186.92636885 229.9980505 186.92636885 229.9980505 184.5625 233 C181.93248768 236.07903881 179.1374966 238.45078401 176 241 C174.31288577 242.6459651 172.6454378 244.31237149 171 246 C170.175 246.804375 169.35 247.60875 168.5 248.4375 C165.92636885 250.9980505 165.92636885 250.9980505 163.5625 254 C160.93248768 257.07903881 158.1374966 259.45078401 155 262 C153.31288577 263.6459651 151.6454378 265.31237149 150 267 C149.175 267.804375 148.35 268.60875 147.5 269.4375 C144.92636885 271.9980505 144.92636885 271.9980505 142.5625 275 C139.93248768 278.07903881 137.1374966 280.45078401 134 283 C132.31288577 284.6459651 130.6454378 286.31237149 129 288 C128.175 288.804375 127.35 289.60875 126.5 290.4375 C123.92636885 292.9980505 123.92636885 292.9980505 121.5625 296 C118.93248768 299.07903881 116.1374966 301.45078401 113 304 C111.31288577 305.6459651 109.6454378 307.31237149 108 309 C106.7625 310.2065625 106.7625 310.2065625 105.5 311.4375 C102.92636885 313.9980505 102.92636885 313.9980505 100.5625 317 C97.93248768 320.07903881 95.1374966 322.45078401 92 325 C90.3142876 326.64740076 88.6436814 328.31066078 87 330 C86.34 330.66 85.68 331.32 85 332 C81.36830985 331.70702332 79.66449236 329.99768497 77.21484375 327.4375 C76.51939453 326.72335937 75.82394531 326.00921875 75.10742188 325.2734375 C74.03331055 324.14808594 74.03331055 324.14808594 72.9375 323 C71.51376407 321.51635755 70.08556846 320.03697816 68.65234375 318.5625 C68.02320068 317.90378906 67.39405762 317.24507813 66.74584961 316.56640625 C64.97857174 314.77164969 64.97857174 314.77164969 62 314 C61.525625 313.195625 61.05125 312.39125 60.5625 311.5625 C59.25338872 308.90551278 59.25338872 308.90551278 57 308 C54.25473365 306.62736683 53.55644352 304.59407253 52 302 C51.34 301.67 50.68 301.34 50 301 C47.25473365 299.62736683 46.55644352 297.59407253 45 295 C44.34 294.67 43.68 294.34 43 294 C40.23046724 292.61523362 39.49278799 290.66105685 38 288 C37.1646875 287.195625 37.1646875 287.195625 36.3125 286.375 C35 285 35 285 35 282 C34.01 282 33.02 282 32 282 C30.46484375 280.28515625 30.46484375 280.28515625 28.9375 278.0625 C26.93041865 275.00721843 26.93041865 275.00721843 24 273 C24.41927903 268.10841134 26.39999108 266.20000793 30 263 C32 261.33333333 34 259.66666667 36 258 C38.68888162 255.44228334 41.12323583 252.85211701 43.5 250 C46.66128862 246.20645365 49.867394 242.85574676 53.8125 239.875 C57.75699122 236.70714435 60.35289613 232.48132878 63.16796875 228.328125 C65 226 65 226 68 225 C68.66 224.01 69.32 223.02 70 222 C72 219 72 219 75 218 C75.66 217.01 76.32 216.02 77 215 C79 212 79 212 82 211 C82.66 210.01 83.32 209.02 84 208 C86 205 86 205 89 204 C89.66 203.01 90.32 202.02 91 201 C93 198 93 198 96 197 C96.66 196.01 97.32 195.02 98 194 C100 191 100 191 103 190 C103.66 189.01 104.32 188.02 105 187 C107 184 107 184 110 183 C110.474375 182.01 110.94875 181.02 111.4375 180 C111.953125 179.01 112.46875 178.02 113 177 C114.875 176.4375 114.875 176.4375 117 176 C119.61803346 173.64376988 121.83367367 171.21310561 124 168.4375 C126.11878607 165.85522947 128.37202922 164.05109914 131 162 C133.53939051 159.5844822 135.84311718 157.20100612 138 154.4375 C140.11878607 151.85522947 142.37202922 150.05109914 145 148 C147.53939051 145.5844822 149.84311718 143.20100612 152 140.4375 C154.11878607 137.85522947 156.37202922 136.05109914 159 134 C161.53939051 131.5844822 163.84311718 129.20100612 166 126.4375 C168.11878607 123.85522947 170.37202922 122.05109914 173 120 C175.53939051 117.5844822 177.84311718 115.20100612 180 112.4375 C182.11878607 109.85522947 184.37202922 108.05109914 187 106 C189.49687109 103.6249275 191.77336707 101.29462281 193.875 98.5625 C196.56823098 95.31478029 199.56497055 92.46205313 203 90 C203.66 90 204.32 90 205 90 C205 89.34 205 88.68 205 88 C136.69 87.67 68.38 87.34 -2 87 C-2 3 -2 3 0 0 Z " fill="#FDFEFE" transform="translate(608,173)"/>
<path d="M0 0 C37.62 0 75.24 0 114 0 C114 75.57 114 151.14 114 229 C195.51 229 277.02 229 361 229 C361 266.29 361 303.58 361 342 C241.87 342 122.74 342 0 342 C0 229.14 0 116.28 0 0 Z " fill="#FEFEFE" transform="translate(601,605)"/>
<path d="M0 0 C46.2 0 92.4 0 140 0 C140 0.66 140 1.32 140 2 C142.97 2.33 145.94 2.66 149 3 C149.33 3.99 149.66 4.98 150 6 C151.87450847 6.66201919 151.87450847 6.66201919 154.125 6.9375 C158.79648902 7.81200274 162.00897429 9.45253678 166 12 C166 12.99 166 13.98 166 15 C166.804375 15.12375 166.804375 15.12375 167.625 15.25 C173.27925736 17.03555495 178.46590989 21.25767395 182 26 C183.1107412 28.48025722 184.02534209 30.94548031 184.84765625 33.53515625 C185.90906389 36.2024594 185.90906389 36.2024594 188.4765625 38.32421875 C191.53802452 41.57050588 192.45369487 44.49373942 193.3125 48.75 C193.55830811 49.93154663 193.55830811 49.93154663 193.80908203 51.13696289 C195.35899198 59.85055985 195.37248659 68.61469807 195.375 77.4375 C195.37690338 78.17649536 195.37880676 78.91549072 195.38076782 79.67687988 C195.38014778 81.80452032 195.36215948 83.93112785 195.3359375 86.05859375 C195.31345947 87.91955688 195.31345947 87.91955688 195.29052734 89.81811523 C195.01319505 92.8554865 194.50656106 94.41910555 193 97 C192.41076456 99.23801349 191.87225083 101.48976895 191.375 103.75 C191.11460937 104.92046875 190.85421875 106.0909375 190.5859375 107.296875 C190.39257812 108.18890625 190.19921875 109.0809375 190 110 C189.01 110 188.02 110 187 110 C187.06058594 110.71800781 187.12117187 111.43601562 187.18359375 112.17578125 C186.63956178 120.54461342 178.32679754 128.15710629 172.8203125 133.90625 C170.80042421 135.95907193 170.80042421 135.95907193 170 139 C167.01540871 140.95542188 165.73585209 141 162 141 C162 141.66 162 142.32 162 143 C159.67706549 144.35504513 157.34616294 145.68614875 155 147 C154.37480469 147.35835937 153.74960937 147.71671875 153.10546875 148.0859375 C145.43101255 152.24358587 137.64248205 153.32009193 129 153 C129 153.66 129 154.32 129 155 C112.32814548 155.02332882 95.65629624 155.04097909 78.98442936 155.05181217 C71.24392718 155.05697517 63.50343513 155.06401793 55.76293945 155.07543945 C49.01872849 155.08538619 42.27452485 155.0918534 35.53030676 155.09408849 C31.95713134 155.09539562 28.3839769 155.09848158 24.81080818 155.10573006 C20.82837649 155.11374372 16.84596559 155.11399114 12.86352539 155.11352539 C11.67022614 155.11712067 10.47692688 155.12071594 9.24746704 155.12442017 C8.16908066 155.1230455 7.09069427 155.12167084 5.97962952 155.12025452 C5.03663529 155.12117631 4.09364107 155.1220981 3.12207127 155.12304783 C1 155 1 155 0 154 C-0.096708 152.01305149 -0.12187052 150.02260987 -0.12025452 148.03330994 C-0.12162918 146.73615555 -0.12300385 145.43900116 -0.12442017 144.10253906 C-0.12088055 142.6516111 -0.11724573 141.20068337 -0.11352539 139.74975586 C-0.11324353 138.23238629 -0.11340123 136.71501658 -0.1139679 135.19764709 C-0.11425591 131.06559484 -0.10835858 126.93357137 -0.10139394 122.80152583 C-0.09516102 118.48801108 -0.09455665 114.17449573 -0.09336853 109.86097717 C-0.09025503 101.68699883 -0.08204139 93.51303379 -0.07201904 85.33906132 C-0.05877341 74.29760874 -0.05335815 63.25615254 -0.04751682 52.21469402 C-0.03810151 34.80978604 -0.01818272 17.40490614 0 0 Z " fill="#0163E2" transform="translate(261,700)"/>
<path d="M0 0 C121.44 0 242.88 0 368 0 C368 34.65 368 69.3 368 105 C367 106 367 106 365.26638216 106.1241985 C364.50428346 106.12381878 363.74218475 106.12343906 362.95699215 106.12304783 C362.08066881 106.12503888 361.20434547 106.12702993 360.30146688 106.12908131 C358.84089411 106.12471205 358.84089411 106.12471205 357.35081482 106.12025452 C356.32498875 106.12110894 355.29916268 106.12196337 354.24225098 106.12284368 C350.77663634 106.12450157 347.31106923 106.11897209 343.84545898 106.11352539 C341.37243654 106.11324356 338.899414 106.11340117 336.4263916 106.1139679 C331.08761919 106.11419622 325.74886181 106.1113448 320.41009331 106.10573006 C312.69104705 106.09761727 304.9720067 106.09500006 297.25295664 106.09374207 C284.73056475 106.0915512 272.20817937 106.08489017 259.68579102 106.07543945 C247.51847364 106.06626623 235.35115803 106.05918496 223.18383789 106.05493164 C222.43436472 106.05466892 221.68489156 106.05440619 220.91270708 106.05413551 C217.15297584 106.05283051 213.39324459 106.05156679 209.63351333 106.05032361 C178.42233735 106.03994991 147.21117001 106.02205623 116 106 C116 116.23 116 126.46 116 137 C181.34 137 246.68 137 314 137 C314 170.33 314 203.66 314 238 C248.33 238 182.66 238 115 238 C115 273.31 115 308.62 115 345 C77.05 345 39.1 345 0 345 C0 231.15 0 117.3 0 0 Z M1 1 C1 113.86 1 226.72 1 343 C38.29 343 75.58 343 114 343 C114 308.02 114 273.04 114 237 C179.01 237 244.02 237 311 237 C311 204.66 311 172.32 311 139 C289.90255859 138.90912109 289.90255859 138.90912109 268.37890625 138.81640625 C259.49674181 138.77593682 250.6145797 138.73521736 241.73242188 138.69335938 C227.61776845 138.62688972 213.50311551 138.56147451 199.38842773 138.50268555 C189.11077101 138.45987348 178.83313678 138.41360313 168.55551475 138.36312145 C163.10999531 138.33649645 157.6644804 138.31164286 152.21893501 138.29092598 C147.09972603 138.27139608 141.98055996 138.24726346 136.86138916 138.21950912 C134.97673761 138.2101193 133.09207662 138.20245103 131.20741081 138.19658089 C128.64596251 138.18835238 126.08461926 138.1740852 123.52320862 138.15821838 C122.76738654 138.15724028 122.01156447 138.15626217 121.23283869 138.15525442 C116.11412121 138.11412121 116.11412121 138.11412121 115 137 C115 126.77 115 116.54 115 106 C198.16 105.67 281.32 105.34 367 105 C367 70.68 367 36.36 367 1 C246.22 1 125.44 1 1 1 Z " fill="#76ABEF" transform="translate(147,171)"/>
<path d="M0 0 C37.62 0 75.24 0 114 0 C114 75.57 114 151.14 114 229 C195.51 229 277.02 229 361 229 C361 229.33 361 229.66 361 230 C279.16 230 197.32 230 113 230 C113 154.43 113 78.86 113 1 C76.7 1 40.4 1 3 1 C3 112.87 3 224.74 3 340 C121.14 340 239.28 340 361 340 C361 340.66 361 341.32 361 342 C241.87 342 122.74 342 0 342 C0 229.14 0 116.28 0 0 Z " fill="#C4DBF8" transform="translate(601,605)"/>
<path d="M0 0 C2.51710469 -0.37374616 2.51710469 -0.37374616 5.77185154 -0.3719368 C7.00833897 -0.37852664 8.2448264 -0.38511649 9.51878315 -0.39190602 C10.90351995 -0.3840368 12.28825519 -0.37588892 13.67298889 -0.36749268 C15.13418397 -0.36951526 16.59537773 -0.37285255 18.05656713 -0.37739825 C22.08635785 -0.38608249 26.11591972 -0.37594754 30.14569056 -0.36285591 C34.48587015 -0.35199422 38.82602771 -0.35836503 43.16621399 -0.36264038 C51.67408325 -0.36828512 60.1818627 -0.35793763 68.68971664 -0.34235242 C78.5871805 -0.32485241 88.4846267 -0.323394 98.38210361 -0.32273683 C116.03511003 -0.32104724 133.68807541 -0.3052133 151.34106445 -0.28125 C168.49048198 -0.25798701 185.63987347 -0.243825 202.78930664 -0.24023438 C204.37376502 -0.23990022 204.37376502 -0.23990022 205.99023265 -0.23955932 C208.11802045 -0.23911674 210.24580824 -0.23867471 212.37359604 -0.23823325 C213.94784025 -0.2379039 213.94784025 -0.2379039 215.55388737 -0.2375679 C216.60064809 -0.23735192 217.64740882 -0.23713593 218.72588957 -0.2369134 C235.04175988 -0.23321645 251.35762596 -0.22185675 267.67349165 -0.2094375 C273.59751933 -0.20499555 279.52154661 -0.20156005 285.4455753 -0.19881538 C294.84026905 -0.19439091 304.23494721 -0.18664595 313.62963111 -0.17204097 C317.92536194 -0.16541503 322.22107896 -0.16036502 326.51681519 -0.15958023 C330.44278357 -0.15879741 334.36871694 -0.15343131 338.29467445 -0.14426073 C339.72126973 -0.14173775 341.14786919 -0.14092541 342.57446636 -0.14191952 C344.50097697 -0.14300347 346.42748801 -0.13742509 348.3539896 -0.13142776 C349.96484577 -0.12955802 349.96484577 -0.12955802 351.60824448 -0.1276505 C354 0 354 0 355 1 C355.09840337 2.81307547 355.12555631 4.63003403 355.12584114 6.44577789 C355.12975276 8.22959625 355.12975276 8.22959625 355.13374341 10.04945135 C355.13158089 11.38603575 355.12932421 12.72262 355.12698364 14.0592041 C355.1281345 15.4659118 355.12972178 16.8726192 355.13171089 18.27932596 C355.13590909 22.16308075 355.13381132 26.04681116 355.13072467 29.93056607 C355.12847277 34.11193083 355.13194913 38.29329124 355.13470459 42.47465515 C355.13916355 50.67314643 355.13818526 58.87162857 355.13529195 67.07012022 C355.13303841 73.73008193 355.13272518 80.39004107 355.13381577 87.05000305 C355.133969 87.99597702 355.13412223 88.94195099 355.13428011 89.91659084 C355.13459982 91.83800058 355.13492403 93.75941031 355.1352527 95.68082005 C355.13810786 113.7202884 355.13481991 131.75975167 355.12945233 149.79921919 C355.12498426 165.29567341 355.12576018 180.79212014 355.13037109 196.28857422 C355.13571622 214.26116544 355.13783316 232.23375222 355.13475883 250.20634413 C355.13444026 252.12089507 355.13412589 254.03544601 355.13381577 255.94999695 C355.13366149 256.89212285 355.13350721 257.83424875 355.13334826 258.80492392 C355.13248292 265.46095887 355.13394635 272.116991 355.13629532 278.77302551 C355.13909284 286.87865749 355.13835608 294.98427977 355.13301457 303.08991063 C355.13037691 307.22969161 355.12937359 311.36945641 355.13266373 315.50923729 C355.13562536 319.29275911 355.13403613 323.07624962 355.12868617 326.85976857 C355.12756141 328.23457883 355.12815446 329.60939169 355.13056196 330.9842003 C355.13356596 332.84087247 355.12991251 334.69755197 355.12584114 336.55422211 C355.12567879 337.58917737 355.12551644 338.62413264 355.12534916 339.69045019 C355 342 355 342 354 343 C351.35799939 343.10043271 348.7421141 343.1361685 346.09960938 343.12939453 C344.85821953 343.13202301 344.85821953 343.13202301 343.5917511 343.13470459 C340.84239638 343.13912393 338.09310543 343.13618483 335.34375 343.1328125 C333.44185371 343.13348552 331.53995751 343.13445552 329.63806152 343.13571167 C325.64655745 343.13718875 321.65507571 343.13503375 317.66357422 343.13037109 C312.53509493 343.1246738 307.40666798 343.12795275 302.27819061 343.13394356 C298.34925946 343.13754889 294.42034082 343.13641072 290.4914093 343.13381577 C288.59987888 343.13314642 286.70834735 343.13397519 284.81681824 343.13629532 C282.17797823 343.13882138 279.53922419 343.13498191 276.90039062 343.12939453 C275.71592094 343.13243088 275.71592094 343.13243088 274.50752258 343.13552856 C269.11426251 343.11426251 269.11426251 343.11426251 268 342 C267.90228493 339.52108029 267.87004043 337.07005223 267.87974548 334.59068298 C267.87846385 333.41333827 267.87846385 333.41333827 267.87715632 332.21220881 C267.87549913 329.56194141 267.88102676 326.91173625 267.88647461 324.26147461 C267.88675646 322.36972556 267.8865988 320.4779764 267.8860321 318.58622742 C267.88574403 313.4335489 267.89164235 308.28089345 267.89860606 303.12822032 C267.90483796 297.74967104 267.90544327 292.3711213 267.90663147 286.99256897 C267.90974527 276.79988176 267.91795931 266.60720521 267.92798096 256.41452271 C267.93914059 244.81375432 267.94465217 233.21298543 267.94967639 221.61221302 C267.96014189 197.74146942 267.97774227 173.87073531 268 150 C267.34 150 266.68 150 266 150 C266 150.66 266 151.32 266 152 C265.34 151.67 264.68 151.34 264 151 C264.66 150.01 265.32 149.02 266 148 C267.32 148 268.64 148 270 148 C270.495 243.04 270.495 243.04 271 340 C298.39 340.33 325.78 340.66 354 341 C354 229.13 354 117.26 354 2 C237.18 2 120.36 2 0 2 C0 29.72 0 57.44 0 86 C68.31 86 136.62 86 207 86 C206.67 87.32 206.34 88.64 206 90 C205.67 89.34 205.34 88.68 205 88 C136.69 87.67 68.38 87.34 -2 87 C-2 3 -2 3 0 0 Z " fill="#9AC1F3" transform="translate(608,173)"/>
<path d="M0 0 C40.92 -0.061875 81.84 -0.12375 124 -0.1875 C136.82359375 -0.21481201 149.6471875 -0.24212402 162.859375 -0.27026367 C178.765625 -0.28381348 178.765625 -0.28381348 186.25976562 -0.28633118 C191.3893642 -0.2890771 196.51886545 -0.30011706 201.6484375 -0.31672668 C228.16305217 -0.3985799 254.60465236 -0.28122714 281.078125 1.33081055 C282.07875725 1.38922611 283.0793895 1.44764167 284.11034393 1.5078274 C310.07171549 3.07171549 310.07171549 3.07171549 314 7 C315.155 7.165 316.31 7.33 317.5 7.5 C321 8 321 8 322 9 C323.010625 9.12375 324.02125 9.2475 325.0625 9.375 C329.42414815 10.0673251 332.91628811 11.35218643 337 13 C337 13.66 337 14.32 337 15 C337.70125 14.95875 338.4025 14.9175 339.125 14.875 C342.44520616 15.01935679 344.95176822 15.68371809 348 17 C348.33 17.99 348.66 18.98 349 20 C347.68 20 346.36 20 345 20 C345 19.34 345 18.68 345 18 C343.35 18 341.7 18 340 18 C340 17.34 340 16.68 340 16 C339.175 16.0825 338.35 16.165 337.5 16.25 C333.54544383 15.9675317 331.41687607 14.79612037 328 12.9453125 C325.09303283 11.5713163 322.17574459 11.39000372 319 11 C317.68044988 10.51891402 316.3684253 10.01692877 315.0625 9.5 C309.90325425 7.65164413 304.74699195 7.50012213 299.32055664 7.29101562 C294.08544685 7.08544685 294.08544685 7.08544685 293 6 C291.60978423 5.85575512 290.21302699 5.77312811 288.81640625 5.71875 C287.97142578 5.68136719 287.12644531 5.64398437 286.25585938 5.60546875 C285.36705078 5.57066406 284.47824219 5.53585937 283.5625 5.5 C281.8136346 5.43121724 280.06491862 5.35848817 278.31640625 5.28125 C277.53724854 5.25095703 276.75809082 5.22066406 275.95532227 5.18945312 C274 5 274 5 272 4 C272 3.34 272 2.68 272 2 C182.57 2 93.14 2 1 2 C1 113.21 1 224.42 1 339 C88.45 339 175.9 339 266 339 C266 338.34 266 337.68 266 337 C273.59 336.67 281.18 336.34 289 336 C289 336.66 289 337.32 289 338 C288.2678125 338.03738281 287.535625 338.07476563 286.78125 338.11328125 C281.08941443 338.45885698 275.46305912 338.90418639 269.81817436 339.71085739 C254.95688027 341.82860391 240.44553429 342.42003723 225.44970703 342.35644531 C222.99624051 342.35723867 220.54277413 342.35934352 218.08930969 342.36264038 C212.18830798 342.36719099 206.2874263 342.3581098 200.38645299 342.34235242 C193.50260598 342.32462486 186.61878304 342.32338941 179.73491679 342.32273683 C167.46159585 342.32105924 155.18833475 342.30536183 142.91503906 342.28125 C131.01561994 342.25788994 119.11623874 342.24380838 107.21679688 342.24023438 C106.48047115 342.24001161 105.74414542 342.23978884 104.98550679 342.23955932 C103.50204961 342.23911671 102.01859244 342.23867469 100.53513526 342.23823325 C99.8033078 342.23801369 99.07148033 342.23779412 98.31747627 342.2375679 C97.58744233 342.23735192 96.85740839 342.23713593 96.10525221 342.2369134 C84.73190033 342.23321856 73.3585545 342.22186898 61.98520926 342.2094375 C57.86918118 342.20500378 53.75315367 342.20156506 49.63712414 342.19881538 C42.51844678 342.19397944 35.39979596 342.18389128 28.28113365 342.16798782 C25.91472195 342.16345346 23.54830631 342.16062349 21.18189049 342.15958023 C17.96523493 342.15784318 14.7486534 342.14998385 11.53201294 342.14044189 C10.58536337 342.14130838 9.6387138 342.14217486 8.66337788 342.1430676 C7.80683106 342.13922645 6.95028424 342.13538531 6.06778145 342.13142776 C5.32514773 342.13018127 4.58251402 342.12893477 3.81737626 342.1276505 C2 342 2 342 0 341 C0 228.47 0 115.94 0 0 Z " fill="#A5C8F5" transform="translate(148,606)"/>
<path d="M0 0 C120.78 0 241.56 0 366 0 C366 34.32 366 68.64 366 104 C282.84 104.33 199.68 104.66 114 105 C114 115.23 114 125.46 114 136 C115.96956755 137.96956755 119.83066933 137.15473398 122.52320862 137.15821838 C123.32035575 137.16315636 124.11750289 137.16809434 124.938806 137.17318195 C127.63050712 137.18863427 130.32218426 137.19693837 133.01391602 137.20532227 C134.93522353 137.21489472 136.85652891 137.22490442 138.77783203 137.23532104 C144.01106339 137.26244473 149.24430384 137.28341375 154.47756696 137.30332303 C159.94021606 137.32513672 165.40283691 137.35254792 170.86546326 137.37937927 C181.21750177 137.4293688 191.56955591 137.47428432 201.92162508 137.51740164 C215.90488705 137.57593421 229.88811191 137.64225457 243.87134075 137.70815182 C265.91420219 137.81182439 287.95709527 137.90504844 310 138 C310 170.34 310 202.68 310 236 C309.67 236 309.34 236 309 236 C309 203.99 309 171.98 309 139 C243.99 139 178.98 139 112 139 C110.49393485 135.98786971 110.87839669 132.88717378 110.90234375 129.5859375 C110.9037587 128.85629791 110.90517365 128.12665833 110.90663147 127.37490845 C110.91223469 125.04156415 110.92478765 122.70831536 110.9375 120.375 C110.94251459 118.79427222 110.94707757 117.21354293 110.95117188 115.6328125 C110.96220516 111.75517146 110.97947189 107.87760193 111 104 C113.31043095 102.84478452 114.61120561 102.87567587 117.18167305 102.87695217 C118.50436972 102.8739656 118.50436972 102.8739656 119.85378754 102.87091869 C121.31582747 102.87528795 121.31582747 102.87528795 122.80740356 102.87974548 C123.83816761 102.87889106 124.86893165 102.87803663 125.93093097 102.87715632 C129.40725906 102.87550069 132.88353959 102.88102425 136.35986328 102.88647461 C138.84288532 102.88675649 141.32590745 102.88659873 143.80892944 102.8860321 C149.16623682 102.88580391 154.5235292 102.88865221 159.88083267 102.89426994 C167.62665202 102.90238703 175.37246548 102.90500038 183.11828862 102.90625793 C195.68449392 102.90844812 208.25069275 102.91510732 220.81689453 102.92456055 C233.02587858 102.93373551 245.23486086 102.94081594 257.44384766 102.94506836 C258.57214381 102.94546244 258.57214381 102.94546244 259.72323383 102.94586449 C263.49667851 102.9471695 267.2701232 102.94843322 271.0435679 102.94967639 C302.36238434 102.96004798 333.68118874 102.97848574 365 103 C365 69.34 365 35.68 365 1 C244.88 1 124.76 1 1 1 C1 113.2 1 225.4 1 341 C37.63 341 74.26 341 112 341 C112 307.01 112 273.02 112 238 C112.33 238 112.66 238 113 238 C113 272.32 113 306.64 113 342 C75.71 342 38.42 342 0 342 C0 229.14 0 116.28 0 0 Z " fill="#BED7F7" transform="translate(148,172)"/>
<path d="M0 0 C88.11 0 176.22 0 267 0 C267 0.66 267 1.32 267 2 C268.23363281 1.96519531 268.23363281 1.96519531 269.4921875 1.9296875 C276.61171361 1.81459123 283.09154367 2.25339253 290 4 C290 4.33 290 4.66 290 5 C289.24861598 4.94158243 288.49723196 4.88316486 287.72307873 4.82297707 C259.16675136 2.69865485 230.62015413 2.65405496 201.99838971 2.59878613 C194.99738459 2.58493219 187.99645332 2.55857572 180.9954834 2.5324707 C162.60118766 2.4697429 144.20683922 2.42332269 125.8125 2.375 C84.624375 2.25125 43.43625 2.1275 1 2 C1 114.2 1 226.4 1 342 C0.67 342 0.34 342 0 342 C0 229.14 0 116.28 0 0 Z " fill="#4D92EA" transform="translate(147,604)"/>
<path d="M0 0 C46.2 0 92.4 0 140 0 C140 0.66 140 1.32 140 2 C140.63808594 2.04898438 141.27617187 2.09796875 141.93359375 2.1484375 C142.75988281 2.22320313 143.58617187 2.29796875 144.4375 2.375 C145.26121094 2.44460938 146.08492187 2.51421875 146.93359375 2.5859375 C147.95646484 2.79089844 147.95646484 2.79089844 149 3 C149.33 3.66 149.66 4.32 150 5 C147.52235775 4.50788748 145.04754351 4.01028752 142.57859325 3.47605324 C135.19449569 1.97424735 128.06244221 1.69469247 120.54223633 1.68115234 C119.22258975 1.67099909 117.90294317 1.66084583 116.5433073 1.6503849 C113.00729446 1.62336948 109.47132252 1.60781063 105.93523407 1.59480286 C102.60435882 1.58076265 99.27356777 1.55615278 95.94274902 1.5324707 C86.23272844 1.4694819 76.52260505 1.4232413 66.8125 1.375 C34.2353125 1.189375 34.2353125 1.189375 1 1 C1 50.83 1 100.66 1 152 C21.83125 151.87625 42.6625 151.7525 64.125 151.625 C73.98850342 151.57400146 73.98850342 151.57400146 84.05126953 151.52197266 C89.94957895 151.48206045 89.94957895 151.48206045 95.84786987 151.43954468 C98.47348444 151.42186769 101.09893991 151.40732861 103.72457886 151.39730835 C107.70336623 151.38190951 111.68195515 151.35091941 115.66064453 151.31884766 C116.82883791 151.31667551 117.99703129 151.31450336 119.20062447 151.3122654 C124.53446849 151.25691537 129.0103385 151.1114369 134 149 C136.14990234 148.68115234 136.14990234 148.68115234 138.0859375 148.5859375 C138.78847656 148.54726563 139.49101562 148.50859375 140.21484375 148.46875 C141.28412109 148.42234375 141.28412109 148.42234375 142.375 148.375 C143.11105469 148.33632813 143.84710938 148.29765625 144.60546875 148.2578125 C146.40327406 148.16442002 148.20160108 148.0811629 150 148 C146.50703152 152.12599837 142.14404296 152.34089582 137 153 C134.30440618 153.13413067 131.70106109 153.1000393 129 153 C129 153.66 129 154.32 129 155 C112.32814548 155.02332882 95.65629624 155.04097909 78.98442936 155.05181217 C71.24392718 155.05697517 63.50343513 155.06401793 55.76293945 155.07543945 C49.01872849 155.08538619 42.27452485 155.0918534 35.53030676 155.09408849 C31.95713134 155.09539562 28.3839769 155.09848158 24.81080818 155.10573006 C20.82837649 155.11374372 16.84596559 155.11399114 12.86352539 155.11352539 C11.67022614 155.11712067 10.47692688 155.12071594 9.24746704 155.12442017 C8.16908066 155.1230455 7.09069427 155.12167084 5.97962952 155.12025452 C5.03663529 155.12117631 4.09364107 155.1220981 3.12207127 155.12304783 C1 155 1 155 0 154 C-0.096708 152.01305149 -0.12187052 150.02260987 -0.12025452 148.03330994 C-0.12162918 146.73615555 -0.12300385 145.43900116 -0.12442017 144.10253906 C-0.12088055 142.6516111 -0.11724573 141.20068337 -0.11352539 139.74975586 C-0.11324353 138.23238629 -0.11340123 136.71501658 -0.1139679 135.19764709 C-0.11425591 131.06559484 -0.10835858 126.93357137 -0.10139394 122.80152583 C-0.09516102 118.48801108 -0.09455665 114.17449573 -0.09336853 109.86097717 C-0.09025503 101.68699883 -0.08204139 93.51303379 -0.07201904 85.33906132 C-0.05877341 74.29760874 -0.05335815 63.25615254 -0.04751682 52.21469402 C-0.03810151 34.80978604 -0.01818272 17.40490614 0 0 Z " fill="#94BEF3" transform="translate(261,700)"/>
<path d="M0 0 C0.99 0.495 0.99 0.495 2 1 C-1.74374727 5.44502558 -5.36279409 9.4610797 -10 13 C-12.53939051 15.4155178 -14.84311718 17.79899388 -17 20.5625 C-19.11878607 23.14477053 -21.37202922 24.94890086 -24 27 C-26.53939051 29.4155178 -28.84311718 31.79899388 -31 34.5625 C-33.11878607 37.14477053 -35.37202922 38.94890086 -38 41 C-40.53939051 43.4155178 -42.84311718 45.79899388 -45 48.5625 C-47.11878607 51.14477053 -49.37202922 52.94890086 -52 55 C-54.53939051 57.4155178 -56.84311718 59.79899388 -59 62.5625 C-61.11878607 65.14477053 -63.37202922 66.94890086 -66 69 C-68.53939051 71.4155178 -70.84311718 73.79899388 -73 76.5625 C-75.11878607 79.14477053 -77.37202922 80.94890086 -80 83 C-83.30591986 86.14465548 -86.16496748 89.43334618 -89 93 C-90.95800893 95.14157226 -92.41526579 96.73421172 -95.0625 97.9375 C-97.23657329 98.91784106 -97.23657329 98.91784106 -98.5 101.5 C-100.18923911 104.31539852 -101.1714722 104.5857361 -104 106 C-104.495 106.825 -104.99 107.65 -105.5 108.5 C-107.18923911 111.31539852 -108.1714722 111.5857361 -111 113 C-111.495 113.825 -111.99 114.65 -112.5 115.5 C-114.18923911 118.31539852 -115.1714722 118.5857361 -118 120 C-118.7425 121.2375 -118.7425 121.2375 -119.5 122.5 C-121.18923911 125.31539852 -122.1714722 125.5857361 -125 127 C-125.7425 128.2375 -125.7425 128.2375 -126.5 129.5 C-128.18923911 132.31539852 -129.1714722 132.5857361 -132 134 C-132.495 134.825 -132.99 135.65 -133.5 136.5 C-135 139 -135 139 -136.890625 139.8984375 C-139.47169124 141.24632765 -140.57394604 142.76328761 -142.25 145.125 C-143.03117188 146.21167969 -143.03117188 146.21167969 -143.828125 147.3203125 C-144.21484375 147.87460937 -144.6015625 148.42890625 -145 149 C-145.66 148.67 -146.32 148.34 -147 148 C-145.5711779 146.01402714 -144.13270528 144.03649356 -142.6875 142.0625 C-142.28337891 141.49853516 -141.87925781 140.93457031 -141.46289062 140.35351562 C-138.33984375 136.11328125 -138.33984375 136.11328125 -135 135 C-134.34 134.01 -133.68 133.02 -133 132 C-131 129 -131 129 -128 128 C-127.34 127.01 -126.68 126.02 -126 125 C-124 122 -124 122 -121 121 C-120.34 120.01 -119.68 119.02 -119 118 C-117 115 -117 115 -114 114 C-113.01 112.515 -113.01 112.515 -112 111 C-110 108 -110 108 -107 107 C-106.01 105.515 -106.01 105.515 -105 104 C-103 101 -103 101 -100 100 C-99.01 98.515 -99.01 98.515 -98 97 C-96 94 -96 94 -93 93 C-92.525625 92.01 -92.05125 91.02 -91.5625 90 C-91.046875 89.01 -90.53125 88.02 -90 87 C-88.125 86.4375 -88.125 86.4375 -86 86 C-83.38196654 83.64376988 -81.16632633 81.21310561 -79 78.4375 C-76.88121393 75.85522947 -74.62797078 74.05109914 -72 72 C-69.46060949 69.5844822 -67.15688282 67.20100612 -65 64.4375 C-62.88121393 61.85522947 -60.62797078 60.05109914 -58 58 C-55.46060949 55.5844822 -53.15688282 53.20100612 -51 50.4375 C-48.88121393 47.85522947 -46.62797078 46.05109914 -44 44 C-41.46060949 41.5844822 -39.15688282 39.20100612 -37 36.4375 C-34.88121393 33.85522947 -32.62797078 32.05109914 -30 30 C-27.46060949 27.5844822 -25.15688282 25.20100612 -23 22.4375 C-20.88121393 19.85522947 -18.62797078 18.05109914 -16 16 C-13.50312891 13.6249275 -11.22663293 11.29462281 -9.125 8.5625 C-6.40834544 5.2865342 -3.28667685 2.68658136 0 0 Z " fill="#89B7F1" transform="translate(811,263)"/>
<path d="M0 0 C0.33 0 0.66 0 1 0 C1 10.56 1 21.12 1 32 C4.63691486 33.21230495 7.97681833 33.1532797 11.76371765 33.15821838 C12.56257364 33.16315636 13.36142962 33.16809434 14.18449336 33.17318195 C16.86998238 33.18857964 19.55544744 33.19692372 22.2409668 33.20532227 C24.16256929 33.214899 26.08416967 33.22490896 28.00576782 33.23532104 C33.23061664 33.2623983 38.45547452 33.2833926 43.68035483 33.30332303 C49.13765353 33.32516519 54.59492421 33.35256253 60.05220032 33.37937927 C70.39000595 33.42933012 80.72782711 33.47426008 91.06566316 33.51740164 C105.03259014 33.5759768 118.99948029 33.64227651 132.9663744 33.70815182 C154.97755813 33.81176393 176.98877336 33.90502822 199 34 C199 66.34 199 98.68 199 132 C198.67 132 198.34 132 198 132 C198 99.99 198 67.98 198 35 C132.99 35 67.98 35 1 35 C-0.50606515 31.98786971 -0.12160331 28.88717378 -0.09765625 25.5859375 C-0.0962413 24.85629791 -0.09482635 24.12665833 -0.09336853 23.37490845 C-0.08776531 21.04156415 -0.07521235 18.70831536 -0.0625 16.375 C-0.05748541 14.79427222 -0.05292243 13.21354293 -0.04882812 11.6328125 C-0.03779484 7.75517146 -0.02052811 3.87760193 0 0 Z " fill="#DDEAFA" transform="translate(259,276)"/>
<path d="M0 0 C0 0.66 0 1.32 0 2 C-0.95261719 2.06058594 -1.90523438 2.12117187 -2.88671875 2.18359375 C-4.14097656 2.26738281 -5.39523437 2.35117187 -6.6875 2.4375 C-7.92886719 2.51871094 -9.17023438 2.59992187 -10.44921875 2.68359375 C-13.82935588 2.91358697 -13.82935588 2.91358697 -16.41992825 3.5120849 C-18.96129117 3.99267981 -21.24925478 4.12424629 -23.83192921 4.12304783 C-24.78240125 4.12503888 -25.7328733 4.12702993 -26.71214753 4.12908131 C-27.74813937 4.12616847 -28.7841312 4.12325563 -29.85151672 4.12025452 C-30.95834799 4.12110894 -32.06517925 4.12196337 -33.20555085 4.12284368 C-36.92131133 4.12449326 -40.63702686 4.11898559 -44.3527832 4.11352539 C-47.01358644 4.11324338 -49.67438692 4.11335747 -52.33518982 4.1139679 C-58.06731445 4.11449213 -63.79942769 4.11135584 -69.53154945 4.10573006 C-77.81922438 4.09760142 -86.1068938 4.09499844 -94.39457228 4.09374207 C-107.84093217 4.09155369 -121.28728599 4.08489942 -134.73364258 4.07543945 C-147.79516571 4.06625979 -160.85668719 4.05918166 -173.91821289 4.05493164 C-174.72338808 4.05466892 -175.52856327 4.05440619 -176.3581377 4.05413551 C-180.39748376 4.05283047 -184.43682983 4.05156676 -188.4761759 4.05032361 C-221.98412167 4.03995768 -255.49206009 4.02234519 -289 4 C-289 3.67 -289 3.34 -289 3 C-201.22 3 -113.44 3 -23 3 C-23 2.34 -23 1.68 -23 1 C-19.91675903 0.83159521 -16.83339379 0.66558138 -13.75 0.5 C-12.44095703 0.42845703 -12.44095703 0.42845703 -11.10546875 0.35546875 C-10.26113281 0.31035156 -9.41679687 0.26523437 -8.546875 0.21875 C-7.77182617 0.17685547 -6.99677734 0.13496094 -6.19824219 0.09179688 C-4.13373418 0.00558463 -2.0663073 0 0 0 Z " fill="#D2E3F9" transform="translate(437,942)"/>
<path d="M0 0 C0 0.66 0 1.32 0 2 C-5.29845845 3.21338743 -10.60351742 3.40435371 -16.015625 3.71875 C-18.88139216 3.66884444 -18.88139216 3.66884444 -20 5 C-21.39178324 5.09649688 -22.7884399 5.12371888 -24.18356419 5.12304783 C-25.09123808 5.12503888 -25.99891198 5.12702993 -26.93409115 5.12908131 C-27.94282487 5.12616847 -28.95155858 5.12325563 -29.99085999 5.12025452 C-31.05343802 5.12110894 -32.11601606 5.12196337 -33.21079344 5.12284368 C-36.8007833 5.12450164 -40.39072728 5.11897196 -43.98071289 5.11352539 C-46.54240416 5.11324356 -49.10409552 5.11340117 -51.66578674 5.1139679 C-57.19608719 5.11419622 -62.72637264 5.11134469 -68.25667 5.10573006 C-76.25263804 5.09761742 -84.24860038 5.09500008 -92.2445721 5.09374207 C-105.21619257 5.09155117 -118.18780676 5.08489008 -131.15942383 5.07543945 C-143.76326465 5.0662663 -156.36710378 5.05918499 -168.97094727 5.05493164 C-169.74730339 5.05466892 -170.52365952 5.05440619 -171.32354159 5.05413551 C-175.21812947 5.05283051 -179.11271736 5.05156679 -183.00730526 5.05032361 C-215.33820807 5.03994983 -247.66910317 5.02233051 -280 5 C-280 4.01 -280 3.02 -280 2 C-279.34 2.33 -278.68 2.66 -278 3 C-276.64669946 3.09505433 -275.28885133 3.12915068 -273.93221855 3.13142776 C-272.64739832 3.13718948 -272.64739832 3.13718948 -271.33662212 3.1430676 C-270.38997255 3.14220112 -269.44332298 3.14133463 -268.46798706 3.14044189 C-266.96561735 3.14489858 -266.96561735 3.14489858 -265.43289673 3.1494453 C-262.05405175 3.15816293 -258.67524208 3.15964322 -255.29638672 3.16113281 C-252.88186059 3.16575937 -250.4673352 3.17078381 -248.05281067 3.17617798 C-241.47094987 3.18933256 -234.88909644 3.19579167 -228.3072257 3.20018864 C-224.18863261 3.20295286 -220.07004186 3.20719104 -215.95145035 3.21169281 C-204.52847631 3.22389775 -193.10550415 3.23418832 -181.68252373 3.2375679 C-180.95069626 3.23778747 -180.21886879 3.23800703 -179.46486474 3.23823325 C-178.73132991 3.23845153 -177.99779509 3.23866981 -177.24203193 3.2388947 C-175.75575566 3.23933816 -174.26947939 3.23978472 -172.78320312 3.24023438 C-171.67734819 3.24056652 -171.67734819 3.24056652 -170.54915275 3.24090537 C-158.65735641 3.24483614 -146.765622 3.2622316 -134.8738495 3.2855939 C-122.63789359 3.30943574 -110.40196851 3.32177587 -98.16598904 3.32293582 C-91.30735036 3.32384646 -84.44879194 3.32944086 -77.59017563 3.34775543 C-71.1174052 3.36497875 -64.64474531 3.36631429 -58.17195702 3.35761642 C-55.81479802 3.35685421 -53.4576304 3.3610789 -51.10049248 3.37107468 C-36.304743 3.4300588 -22.00278378 2.48176491 -7.36529076 0.26973414 C-4.89030814 -0.01250909 -2.48883971 -0.04556638 0 0 Z " fill="#2F80E7" transform="translate(428,944)"/>
<path d="M0 0 C68.64 0 137.28 0 208 0 C206.75453595 3.73639216 205.36595047 4.18756513 202 6 C202 5.01 202 4.02 202 3 C202.66 3 203.32 3 204 3 C204 2.34 204 1.68 204 1 C136.68 1 69.36 1 0 1 C0 0.67 0 0.34 0 0 Z " fill="#1470E4" transform="translate(606,260)"/>
<path d="M0 0 C-7.65474996 5.10316664 -17.66946813 4.27898872 -26.52783203 4.22705078 C-27.84602432 4.22734283 -29.16421661 4.22763489 -30.52235413 4.22793579 C-34.10641424 4.22850533 -37.69033816 4.21681627 -41.27436686 4.20278788 C-45.03128255 4.19021342 -48.788202 4.18910476 -52.5451355 4.18673706 C-59.64573374 4.1805419 -66.74626978 4.16415791 -73.84684074 4.14403808 C-81.93639 4.12161764 -90.02594236 4.11067026 -98.11551499 4.10064721 C-114.74371297 4.07978975 -131.37184852 4.04465233 -148 4 C-148 3.67 -148 3.34 -148 3 C-147.03424073 2.99503478 -147.03424073 2.99503478 -146.04897118 2.98996925 C-130.37449728 2.90870765 -114.70013012 2.81660487 -99.02579308 2.71247292 C-91.44576404 2.66237599 -83.86574565 2.61593277 -76.28564453 2.578125 C-69.67793228 2.54515797 -63.07030344 2.5053008 -56.46268332 2.45720994 C-52.96481486 2.4319917 -49.4670014 2.41019672 -45.96906662 2.39665604 C-42.06179697 2.38140159 -38.15472941 2.35076271 -34.24755859 2.31884766 C-33.09093719 2.31668747 -31.9343158 2.31452728 -30.74264526 2.31230164 C-25.41419609 2.25662745 -20.99227093 2.07422644 -16 0 C-13.96715527 -0.29742639 -11.92326561 -0.52772481 -9.875 -0.6875 C-8.86179687 -0.77386719 -7.84859375 -0.86023438 -6.8046875 -0.94921875 C-4.27667792 -0.99499051 -2.39188648 -0.76105479 0 0 Z " fill="#418BE9" transform="translate(411,849)"/>
<path d="M0 0 C45.54 0 91.08 0 138 0 C138 0.66 138 1.32 138 2 C138.63808594 2.04898438 139.27617187 2.09796875 139.93359375 2.1484375 C140.75988281 2.22320313 141.58617187 2.29796875 142.4375 2.375 C143.26121094 2.44460938 144.08492187 2.51421875 144.93359375 2.5859375 C145.95646484 2.79089844 145.95646484 2.79089844 147 3 C147.33 3.66 147.66 4.32 148 5 C145.52135973 4.50760861 143.0454717 4.00982612 140.57536602 3.47605324 C133.22186214 1.98194034 126.12301723 1.69469293 118.6340332 1.68115234 C117.3449556 1.67110672 116.05587799 1.6610611 114.72773743 1.65071106 C111.22851271 1.62365683 107.72932767 1.60833559 104.23002648 1.59528303 C100.55981464 1.5795436 96.88968259 1.55278849 93.2195282 1.5272522 C86.28547841 1.48065429 79.35141329 1.44381895 72.41728801 1.41057932 C64.51628722 1.3722229 56.61536694 1.32284864 48.71443427 1.27259517 C32.47634753 1.1695581 16.23821591 1.08020687 0 1 C0 0.67 0 0.34 0 0 Z " fill="#74AAEF" transform="translate(263,700)"/>
<path d="M0 0 C0.99 0.33 1.98 0.66 3 1 C2.09522263 2.46573934 1.17565859 3.92235756 0.25 5.375 C-0.51570312 6.59316406 -0.51570312 6.59316406 -1.296875 7.8359375 C-3.09525421 10.12103402 -4.40874356 10.81144849 -7 12 C-7.495 12.825 -7.99 13.65 -8.5 14.5 C-10.18923911 17.31539852 -11.1714722 17.5857361 -14 19 C-14.495 19.825 -14.99 20.65 -15.5 21.5 C-17.18923911 24.31539852 -18.1714722 24.5857361 -21 26 C-21.495 26.825 -21.99 27.65 -22.5 28.5 C-24.18923911 31.31539852 -25.1714722 31.5857361 -28 33 C-28.495 33.825 -28.99 34.65 -29.5 35.5 C-31.18923911 38.31539852 -32.1714722 38.5857361 -35 40 C-35.495 40.825 -35.99 41.65 -36.5 42.5 C-38.18923911 45.31539852 -39.1714722 45.5857361 -42 47 C-42.495 47.825 -42.99 48.65 -43.5 49.5 C-45 52 -45 52 -46.890625 52.8984375 C-49.47169124 54.24632765 -50.57394604 55.76328761 -52.25 58.125 C-52.77078125 58.84945312 -53.2915625 59.57390625 -53.828125 60.3203125 C-54.40820312 61.15175781 -54.40820312 61.15175781 -55 62 C-55.66 61.67 -56.32 61.34 -57 61 C-55.5711779 59.01402714 -54.13270528 57.03649356 -52.6875 55.0625 C-52.28337891 54.49853516 -51.87925781 53.93457031 -51.46289062 53.35351562 C-48.33984375 49.11328125 -48.33984375 49.11328125 -45 48 C-44.34 47.01 -43.68 46.02 -43 45 C-41 42 -41 42 -38 41 C-37.34 40.01 -36.68 39.02 -36 38 C-34 35 -34 35 -31 34 C-30.34 33.01 -29.68 32.02 -29 31 C-27 28 -27 28 -24 27 C-23.34 26.01 -22.68 25.02 -22 24 C-20 21 -20 21 -17 20 C-16.34 19.01 -15.68 18.02 -15 17 C-13 14 -13 14 -10 13 C-9.34 12.01 -8.68 11.02 -8 10 C-6 7 -6 7 -3 6 C-1.29144978 2.99992729 -1.29144978 2.99992729 0 0 Z " fill="#6EA6EE" transform="translate(721,350)"/>
<path d="M0 0 C0.33 0 0.66 0 1 0 C2.83060666 16.84791052 3.29722975 32.96366226 2.125 49.875 C2.04668945 51.02887207 1.96837891 52.18274414 1.88769531 53.37158203 C1.40433097 59.76365871 0.57069357 65.78322126 -1 72 C-1.33 72 -1.66 72 -2 72 C-2.0272415 70.58344207 -2.04650467 69.16672955 -2.0625 67.75 C-2.07410156 66.96109375 -2.08570313 66.1721875 -2.09765625 65.359375 C-2 63 -2 63 -1.50672913 61.21942139 C-0.88225784 58.48430144 -0.83664842 55.93592282 -0.79467773 53.12988281 C-0.77473251 51.94896057 -0.75478729 50.76803833 -0.73423767 49.55133057 C-0.71752518 48.28142273 -0.70081268 47.01151489 -0.68359375 45.703125 C-0.66281265 44.39921814 -0.64203156 43.09531128 -0.62062073 41.75189209 C-0.56554764 38.29304192 -0.5160736 34.8341336 -0.46777344 31.37518311 C-0.41745028 27.84251762 -0.36182078 24.30993611 -0.30664062 20.77734375 C-0.19923979 13.85163537 -0.09775503 6.92585106 0 0 Z " fill="#9AC1F3" transform="translate(574,747)"/>
<path d="M0 0 C6.76762616 -0.38307318 12.58212978 0.82311256 19 3 C19.33 3.33 19.66 3.66 20 4 C21.155 4.165 22.31 4.33 23.5 4.5 C27 5 27 5 28 6 C29.010625 6.12375 30.02125 6.2475 31.0625 6.375 C35.42414815 7.0673251 38.91628811 8.35218643 43 10 C43 10.66 43 11.32 43 12 C44.051875 11.938125 44.051875 11.938125 45.125 11.875 C48.44520616 12.01935679 50.95176822 12.68371809 54 14 C54.495 15.485 54.495 15.485 55 17 C53.68 17 52.36 17 51 17 C51 16.34 51 15.68 51 15 C49.35 15 47.7 15 46 15 C46 14.34 46 13.68 46 13 C44.7625 13.12375 44.7625 13.12375 43.5 13.25 C39.54544383 12.9675317 37.41687607 11.79612037 34 9.9453125 C31.09303283 8.5713163 28.17574459 8.39000372 25 8 C22.75230459 7.31285923 20.54617135 6.53488316 18.328125 5.7578125 C15.30759963 4.77462136 12.25870397 4.12231682 9.15234375 3.47265625 C6.05470734 2.79241305 3.03877711 1.90516765 0 1 C0 0.67 0 0.34 0 0 Z " fill="#6AA4EE" transform="translate(442,609)"/>
<path d="M0 0 C2.98549106 2.98549106 2.68458904 6.53692675 3.0625 10.5625 C3.11987828 15.69339843 3.11987828 15.69339843 5 20 C5.10027196 22.02795315 5.13081419 24.05941413 5.1328125 26.08984375 C5.13410156 27.34990234 5.13539063 28.60996094 5.13671875 29.90820312 C5.13462402 30.57086182 5.1325293 31.23352051 5.13037109 31.91625977 C5.12510511 33.89794335 5.13080034 35.87964638 5.13671875 37.86132812 C5.12951244 44.97034897 4.91197776 51.94619476 4 59 C3.67 59 3.34 59 3 59 C3.01571045 58.36425049 3.0314209 57.72850098 3.04760742 57.07348633 C3.40721578 40.03533337 2.34092776 23.60659215 0.27539062 6.70361328 C0 4 0 4 0 0 Z " fill="#3986E8" transform="translate(573,735)"/>
<path d="M0 0 C0.99 0.33 1.98 0.66 3 1 C3 2.98 3 4.96 3 7 C3.66 7 4.32 7 5 7 C5.1687634 11.28643735 5.32918968 15.57308482 5.48217773 19.86010742 C5.53527189 21.31592017 5.59057186 22.77165433 5.64819336 24.22729492 C5.73102362 26.32974298 5.80569592 28.43235378 5.87890625 30.53515625 C5.9260376 31.797229 5.97316895 33.05930176 6.02172852 34.35961914 C5.99999333 38.00111769 5.60030977 41.41229008 5 45 C4.67 45 4.34 45 4 45 C3.97812622 43.78437378 3.97812622 43.78437378 3.95581055 42.54418945 C3.893911 39.4704284 3.81961798 36.39725835 3.73754883 33.32397461 C3.68884564 31.36658166 3.6537988 29.40886388 3.61914062 27.45117188 C3.40694957 19.87016435 2.56539812 12.93858908 0.63208008 5.59838867 C0 3 0 3 0 0 Z " fill="#A3C7F4" transform="translate(452,744)"/>
<path d="M0 0 C1.32 0.33 2.64 0.66 4 1 C4 1.66 4 2.32 4 3 C6.33214148 4.20628008 8.49642139 5.1654738 11 6 C11 7.32 11 8.64 11 10 C11.66 10 12.32 10 13 10 C13 10.66 13 11.32 13 12 C13.99 12.33 14.98 12.66 16 13 C16 13.66 16 14.32 16 15 C16.66 15 17.32 15 18 15 C18.268125 15.969375 18.53625 16.93875 18.8125 17.9375 C19.204375 18.948125 19.59625 19.95875 20 21 C20.99 21.33 21.98 21.66 23 22 C23.33 23.65 23.66 25.3 24 27 C23.01 26.34 22.02 25.68 21 25 C21 24.34 21 23.68 21 23 C20.34 23 19.68 23 19 23 C16 18.61538462 16 18.61538462 16 16 C15.34 16 14.68 16 14 16 C14 15.34 14 14.68 14 14 C13.34 14 12.68 14 12 14 C12 13.34 12 12.68 12 12 C11.01 11.67 10.02 11.34 9 11 C8.525625 10.195625 8.05125 9.39125 7.5625 8.5625 C5.90447019 5.84333111 4.91563061 5.10592885 2 4 C2 3.34 2 2.68 2 2 C1.34 2 0.68 2 0 2 C0 1.34 0 0.68 0 0 Z " fill="#85B4F1" transform="translate(525,643)"/>
<path d="M0 0 C0.66 0 1.32 0 2 0 C2 0.99 2 1.98 2 3 C0.865625 3.45375 -0.26875 3.9075 -1.4375 4.375 C-5.04721692 5.57095806 -5.04721692 5.57095806 -6 8 C-8.04524321 8.59505999 -10.09333957 8.95466781 -12.1875 9.33984375 C-12.785625 9.55769531 -13.38375 9.77554688 -14 10 C-14.33 10.99 -14.66 11.98 -15 13 C-16.32 13 -17.64 13 -19 13 C-19 13.66 -19 14.32 -19 15 C-20.65 15 -22.3 15 -24 15 C-24 15.66 -24 16.32 -24 17 C-25.32 16.67 -26.64 16.34 -28 16 C-25 14 -25 14 -22 14 C-22 13.01 -22 12.02 -22 11 C-21.37351562 10.80664062 -20.74703125 10.61328125 -20.1015625 10.4140625 C-19.28429687 10.15367187 -18.46703125 9.89328125 -17.625 9.625 C-16.81289063 9.36976563 -16.00078125 9.11453125 -15.1640625 8.8515625 C-12.83540815 8.10145717 -12.83540815 8.10145717 -11 6 C-10.01 6 -9.02 6 -8 6 C-8 5.34 -8 4.68 -8 4 C-6.865625 3.525625 -5.73125 3.05125 -4.5625 2.5625 C-1.24259834 1.36377917 -1.24259834 1.36377917 0 0 Z " fill="#7EB0F0" transform="translate(508,913)"/>
<path d="M0 0 C0.33 0 0.66 0 1 0 C1.34548714 6.33393082 0.29342747 11.10261508 -2 17 C-2.66 17 -3.32 17 -4 17 C-4 18.32 -4 19.64 -4 21 C-4.66 21 -5.32 21 -6 21 C-6.103125 21.86625 -6.20625 22.7325 -6.3125 23.625 C-7.03398414 27.16683123 -8.27123261 29.84312042 -10 33 C-11.43088528 30.13822943 -10.59991697 28.06624227 -10 25 C-9.34 25 -8.68 25 -8 25 C-6.41744803 20.67435795 -5.54855348 16.571279 -5 12 C-4.34 12 -3.68 12 -3 12 C-2.87625 11.13375 -2.7525 10.2675 -2.625 9.375 C-2.01941879 6.10486147 -1.11693965 3.12743101 0 0 Z " fill="#A1C5F4" transform="translate(570,824)"/>
<path d="M0 0 C2.64 0 5.28 0 8 0 C1.625 4.25 1.625 4.25 -3 4 C-3 4.66 -3 5.32 -3 6 C-4.7015625 6.2165625 -4.7015625 6.2165625 -6.4375 6.4375 C-9.80777201 6.61171478 -9.80777201 6.61171478 -11 8 C-12.5781152 8.21041536 -14.16335378 8.36856185 -15.75 8.5 C-19.22812239 8.81392795 -22.59233666 9.20487855 -26 10 C-23.28817788 7.39665076 -22.10866187 7.00543309 -18.25 6.8125 C-17.1775 6.874375 -16.105 6.93625 -15 7 C-15 6.34 -15 5.68 -15 5 C-12.94921875 4.77213542 -10.8984375 4.54427083 -8.84765625 4.31640625 C-6.98859771 4.18113386 -6.98859771 4.18113386 -6 3 C-4.33382885 2.95936168 -2.66611905 2.957279 -1 3 C-0.67 2.01 -0.34 1.02 0 0 Z " fill="#82B2F0" transform="translate(468,931)"/>
<path d="M0 0 C1.13732426 3.40401948 0.83989957 5.77456664 0.0625 9.25 C-0.13214844 10.14203125 -0.32679688 11.0340625 -0.52734375 11.953125 C-0.68332031 12.62859375 -0.83929688 13.3040625 -1 14 C-1.66 14 -2.32 14 -3 14 C-3 15.98 -3 17.96 -3 20 C-3.66 20 -4.32 20 -5 20 C-5.33 21.65 -5.66 23.3 -6 25 C-6.66 25 -7.32 25 -8 25 C-8.66 26.32 -9.32 27.64 -10 29 C-10 25.98509443 -9.48047265 24.13135886 -8.5 21.3125 C-8.2215625 20.50425781 -7.943125 19.69601562 -7.65625 18.86328125 C-7.4396875 18.24839844 -7.223125 17.63351562 -7 17 C-6.01 17 -5.02 17 -4 17 C-4.0928125 15.7934375 -4.0928125 15.7934375 -4.1875 14.5625 C-3.91568124 9.39794364 -2.31151185 4.6230237 0 0 Z " fill="#89B6F1" transform="translate(455,793)"/>
<path d="M0 0 C9.68780763 0.38858426 18.59552496 1.47839539 28 4 C28 4.33 28 4.66 28 5 C25.85423363 5.02685938 23.70837355 5.04633088 21.5625 5.0625 C20.36753906 5.07410156 19.17257812 5.08570313 17.94140625 5.09765625 C15 5 15 5 14 4 C10.64319011 3.46309089 7.27754672 3.03372615 3.90625 2.59765625 C2.9471875 2.40042969 1.988125 2.20320312 1 2 C0.67 1.34 0.34 0.68 0 0 Z " fill="#AECDF5" transform="translate(427,608)"/>
<path d="M0 0 C0 0.66 0 1.32 0 2 C-0.95261719 2.06058594 -1.90523438 2.12117187 -2.88671875 2.18359375 C-4.14097656 2.26738281 -5.39523437 2.35117187 -6.6875 2.4375 C-7.92886719 2.51871094 -9.17023438 2.59992187 -10.44921875 2.68359375 C-13.85746622 2.9199488 -13.85746622 2.9199488 -16.59375 3.53125 C-19.38199059 4.07441375 -21.97447268 4.0966931 -24.8125 4.0625 C-26.27623047 4.04896484 -26.27623047 4.04896484 -27.76953125 4.03515625 C-28.87361328 4.01775391 -28.87361328 4.01775391 -30 4 C-30 3.67 -30 3.34 -30 3 C-27.69 3 -25.38 3 -23 3 C-23 2.34 -23 1.68 -23 1 C-19.91675903 0.83159521 -16.83339379 0.66558138 -13.75 0.5 C-12.87730469 0.45230469 -12.00460937 0.40460937 -11.10546875 0.35546875 C-10.26113281 0.31035156 -9.41679687 0.26523437 -8.546875 0.21875 C-7.38430176 0.1559082 -7.38430176 0.1559082 -6.19824219 0.09179688 C-4.13373418 0.00558463 -2.0663073 0 0 0 Z " fill="#9AC1F3" transform="translate(437,942)"/>
<path d="M0 0 C1.32 0 2.64 0 4 0 C4 0.66 4 1.32 4 2 C6.31 2 8.62 2 11 2 C11 2.66 11 3.32 11 4 C11.598125 4.12375 12.19625 4.2475 12.8125 4.375 C15 5 15 5 18 7 C18 7.66 18 8.32 18 9 C18.639375 9.28875 19.27875 9.5775 19.9375 9.875 C22 11 22 11 23 13 C22.401875 12.690625 21.80375 12.38125 21.1875 12.0625 C18.91043228 10.89790296 18.91043228 10.89790296 16 10 C16 9.01 16 8.02 16 7 C15.401875 6.87625 14.80375 6.7525 14.1875 6.625 C12 6 12 6 9 4 C7.824375 3.67 6.64875 3.34 5.4375 3 C2 2 2 2 0 0 Z " fill="#A1C6F4" transform="translate(411,705)"/>
<path d="M0 0 C0.33 0 0.66 0 1 0 C2.79943163 4.79344392 3.56815323 9.32686455 4.125 14.375 C4.21136719 15.11105469 4.29773438 15.84710937 4.38671875 16.60546875 C4.59681885 18.40299182 4.79920767 20.20141342 5 22 C4.34 22 3.68 22 3 22 C1.55318676 19.10637351 1.56757624 16.1916991 1.28125 12.99609375 C1.20467988 11.00416869 1.20467988 11.00416869 0 10 C-0.07205511 8.31391034 -0.08386068 6.62499341 -0.0625 4.9375 C-0.05347656 4.01839844 -0.04445313 3.09929688 -0.03515625 2.15234375 C-0.02355469 1.44207031 -0.01195312 0.73179687 0 0 Z " fill="#C3DAF8" transform="translate(567,709)"/>
<path d="M0 0 C0.66 0.33 1.32 0.66 2 1 C1.67 1.66 1.34 2.32 1 3 C0.34 3 -0.32 3 -1 3 C-1 3.66 -1 4.32 -1 5 C-2.65 5.66 -4.3 6.32 -6 7 C-6 7.99 -6 8.98 -6 10 C-8.26216255 11.54779543 -10.55224566 12.77612283 -13 14 C-10.39205295 7.91479021 -4.94399135 4.16628484 0 0 Z " fill="#98C0F3" transform="translate(525,899)"/>
<path d="M0 0 C4.38262661 0.48695851 8.59381481 1.30889 12.875 2.375 C14.29425781 2.72691406 14.29425781 2.72691406 15.7421875 3.0859375 C16.85980469 3.53839844 16.85980469 3.53839844 18 4 C18.33 4.99 18.66 5.98 19 7 C17.68 7 16.36 7 15 7 C15 6.34 15 5.68 15 5 C13.35 5 11.7 5 10 5 C10 4.34 10 3.68 10 3 C9.0925 3.061875 8.185 3.12375 7.25 3.1875 C3.71017358 2.98327924 2.55068845 2.35448165 0 0 Z " fill="#85B5F1" transform="translate(478,619)"/>
<path d="M0 0 C0.33 0.99 0.66 1.98 1 3 C1.66 3 2.32 3 3 3 C3.06058594 3.78246094 3.12117187 4.56492187 3.18359375 5.37109375 C3.26738281 6.38300781 3.35117187 7.39492188 3.4375 8.4375 C3.55931641 9.95150391 3.55931641 9.95150391 3.68359375 11.49609375 C3.73211468 13.93640779 3.73211468 13.93640779 5 15 C5.14115161 17.67058851 5.04247107 20.32432238 5 23 C2.64253044 19.46379565 2.44987373 17.06871439 1.9375 12.875 C1.76713478 8.61113227 1.76713478 8.61113227 0 5 C-0.04063832 3.33382885 -0.042721 1.66611905 0 0 Z " fill="#5798EC" transform="translate(568,709)"/>
<path d="M0 0 C0.99 0.495 0.99 0.495 2 1 C2 2.32 2 3.64 2 5 C2.99 5 3.98 5 5 5 C5.52909886 7.28977245 6.04805019 9.58189188 6.5625 11.875 C6.85253906 13.15117188 7.14257812 14.42734375 7.44140625 15.7421875 C8 19 8 19 7 21 C6 20 6 20 5.9375 16.4375 C5.958125 15.303125 5.97875 14.16875 6 13 C5.34 13 4.68 13 4 13 C3.87625 12.195625 3.7525 11.39125 3.625 10.5625 C3.315625 9.2940625 3.315625 9.2940625 3 8 C2.34 7.67 1.68 7.34 1 7 C0.59270772 4.67843403 0.25561323 2.3431213 0 0 Z " fill="#88B6F1" transform="translate(559,688)"/>
<path d="M0 0 C3.63 0 7.26 0 11 0 C11 0.66 11 1.32 11 2 C11.63808594 2.04898438 12.27617187 2.09796875 12.93359375 2.1484375 C13.75988281 2.22320313 14.58617187 2.29796875 15.4375 2.375 C16.26121094 2.44460938 17.08492188 2.51421875 17.93359375 2.5859375 C18.61550781 2.72257813 19.29742187 2.85921875 20 3 C20.33 3.66 20.66 4.32 21 5 C20.34644531 4.86722656 19.69289063 4.73445312 19.01953125 4.59765625 C15.24704978 3.85096846 11.46776356 3.14355459 7.6875 2.4375 C6.94693359 2.29892578 6.20636719 2.16035156 5.44335938 2.01757812 C3.62895786 1.67810945 1.81448601 1.33901677 0 1 C0 0.67 0 0.34 0 0 Z " fill="#B6D2F6" transform="translate(390,700)"/>
<path d="M0 0 C0.33 1.32 0.66 2.64 1 4 C0.01 4.495 0.01 4.495 -1 5 C-2.04718798 7.31254012 -3.04346365 9.6485148 -4 12 C-4.65288627 13.34013497 -5.31225595 14.67741528 -6 16 C-6.66 15.67 -7.32 15.34 -8 15 C-6.35 10.71 -4.7 6.42 -3 2 C-2.01 2 -1.02 2 0 2 C0 1.34 0 0.68 0 0 Z " fill="#98C0F3" transform="translate(558,857)"/>
<path d="M0 0 C0.66 0.33 1.32 0.66 2 1 C-5.11389522 10.59453303 -5.11389522 10.59453303 -10 14 C-10.66 13.67 -11.32 13.34 -12 13 C-8.90306533 9.1067107 -5.93093001 6.08099919 -2 3 C-1.34 2.01 -0.68 1.02 0 0 Z " fill="#81B2F0" transform="translate(797,276)"/>
<path d="M0 0 C-6.16795162 4.11196775 -13.76565833 4.26793858 -21 4 C-21 3.67 -21 3.34 -21 3 C-20.02417969 2.79503906 -19.04835938 2.59007812 -18.04296875 2.37890625 C-16.77066406 2.10949219 -15.49835938 1.84007812 -14.1875 1.5625 C-12.92292969 1.29566406 -11.65835937 1.02882813 -10.35546875 0.75390625 C-2.93960084 -0.91228992 -2.93960084 -0.91228992 0 0 Z " fill="#93BCF2" transform="translate(411,849)"/>
<path d="M0 0 C0.66 0 1.32 0 2 0 C2.268125 0.639375 2.53625 1.27875 2.8125 1.9375 C3.88667752 4.33131686 3.88667752 4.33131686 7 5 C7 6.65 7 8.3 7 10 C7.66 10 8.32 10 9 10 C8.67 10.99 8.34 11.98 8 13 C7.731875 12.360625 7.46375 11.72125 7.1875 11.0625 C6.11332248 8.66868314 6.11332248 8.66868314 3 8 C2.05078125 6.15234375 2.05078125 6.15234375 1.3125 3.9375 C1.06113281 3.20402344 0.80976563 2.47054687 0.55078125 1.71484375 C0.36902344 1.14894531 0.18726563 0.58304688 0 0 Z " fill="#A8CAF5" transform="translate(443,728)"/>
<path d="M0 0 C1.32 0.33 2.64 0.66 4 1 C4 1.66 4 2.32 4 3 C6.33214148 4.20628008 8.49642139 5.1654738 11 6 C10.67 7.32 10.34 8.64 10 10 C9.4225 9.38125 8.845 8.7625 8.25 8.125 C6.19750179 6.18652947 4.56633418 5.09985751 2 4 C2 3.34 2 2.68 2 2 C1.34 2 0.68 2 0 2 C0 1.34 0 0.68 0 0 Z " fill="#5E9CEC" transform="translate(525,643)"/>
<path d="M0 0 C0.33 0 0.66 0 1 0 C1.34548714 6.33393082 0.29342747 11.10261508 -2 17 C-2.66 17 -3.32 17 -4 17 C-2.07289294 5.47835991 -2.07289294 5.47835991 0 0 Z " fill="#5999EC" transform="translate(570,824)"/>
<path d="M0 0 C2.30142435 1.78174788 3.80034391 3.16304165 4.48828125 6.046875 C4.72323102 8.0246611 4.86751458 10.01271872 5 12 C4.01 11.67 3.02 11.34 2 11 C0.60955102 7.12137916 0 4.13537997 0 0 Z " fill="#5295EB" transform="translate(448,737)"/>
<path d="M0 0 C1.72985242 0.11512153 3.45888751 0.24255677 5.1875 0.375 C6.15042969 0.44460938 7.11335938 0.51421875 8.10546875 0.5859375 C11.01508938 1.00215853 13.32890774 1.79874096 16 3 C16 3.33 16 3.66 16 4 C13.69 4 11.38 4 9 4 C9 3.34 9 2.68 9 2 C6.03 2 3.06 2 0 2 C0 1.34 0 0.68 0 0 Z " fill="#488FEA" transform="translate(395,702)"/>
<path d="M0 0 C4.54805635 -0.17835515 7.8794254 0.00214565 12 2 C12 2.33 12 2.66 12 3 C10.37509046 3.02698189 8.75005367 3.04638757 7.125 3.0625 C5.76761719 3.07990234 5.76761719 3.07990234 4.3828125 3.09765625 C2 3 2 3 0 2 C0 1.34 0 0.68 0 0 Z " fill="#DDEAFB" transform="translate(420,608)"/>
<path d="M0 0 C0.66 0 1.32 0 2 0 C1.67 1.65 1.34 3.3 1 5 C1.639375 5.268125 2.27875 5.53625 2.9375 5.8125 C5 7 5 7 6 10 C5.34 10 4.68 10 4 10 C4 9.34 4 8.68 4 8 C3.01 8 2.02 8 1 8 C-1 5 -1 5 -0.625 2.3125 C-0.41875 1.549375 -0.2125 0.78625 0 0 Z " fill="#4A90EA" transform="translate(631,441)"/>
<path d="M0 0 C0 0.99 0 1.98 0 3 C-1.32 3 -2.64 3 -4 3 C-4 3.66 -4 4.32 -4 5 C-5.65 5 -7.3 5 -9 5 C-9 5.66 -9 6.32 -9 7 C-10.32 6.67 -11.64 6.34 -13 6 C-8.7162359 3.42974154 -4.8274799 1.41292095 0 0 Z " fill="#458DE9" transform="translate(493,923)"/>
<path d="M0 0 C-3.80513061 1.96817101 -6.87638072 3.13317409 -11.1875 3.0625 C-13.0746875 3.0315625 -13.0746875 3.0315625 -15 3 C-15 2.67 -15 2.34 -15 2 C-9.87080814 -0.10428384 -5.4389165 -0.21755666 0 0 Z " fill="#287BE6" transform="translate(404,849)"/>
<path d="M0 0 C1.18771723 3.42943519 0.80226223 5.37784675 -0.4375 8.75 C-0.86869141 9.94882812 -0.86869141 9.94882812 -1.30859375 11.171875 C-1.65083984 12.07679688 -1.65083984 12.07679688 -2 13 C-3.29550413 10.40899174 -2.96400816 8.80575631 -2.6875 5.9375 C-2.60886719 5.03902344 -2.53023437 4.14054688 -2.44921875 3.21484375 C-2.30097656 2.48394531 -2.15273438 1.75304687 -2 1 C-1.34 0.67 -0.68 0.34 0 0 Z " fill="#C7DDF8" transform="translate(571,817)"/>
<path d="M0 0 C0.99 0 1.98 0 3 0 C1.75976392 3.72070823 0.04269852 4.62521091 -3 7 C-3.99 8.485 -3.99 8.485 -5 10 C-5.66 9.67 -6.32 9.34 -7 9 C-5.90751403 7.49147143 -4.80061501 5.99337169 -3.6875 4.5 C-3.07261719 3.6646875 -2.45773437 2.829375 -1.82421875 1.96875 C-1.22222656 1.3190625 -0.62023437 0.669375 0 0 Z " fill="#94BDF2" transform="translate(727,346)"/>
<path d="M0 0 C0.99 0 1.98 0 3 0 C1.75976392 3.72070823 0.04269852 4.62521091 -3 7 C-3.99 8.485 -3.99 8.485 -5 10 C-5.66 9.67 -6.32 9.34 -7 9 C-5.90751403 7.49147143 -4.80061501 5.99337169 -3.6875 4.5 C-3.07261719 3.6646875 -2.45773437 2.829375 -1.82421875 1.96875 C-1.22222656 1.3190625 -0.62023437 0.669375 0 0 Z " fill="#93BDF2" transform="translate(783,290)"/>
<path d="M0 0 C1.32 0.33 2.64 0.66 4 1 C1.47121041 3.52878959 -0.50471879 3.42910155 -3.95703125 3.78125 C-6.34135588 4.03655053 -8.65852727 4.48780284 -11 5 C-8.28817788 2.39665076 -7.10866187 2.00543309 -3.25 1.8125 C-2.1775 1.874375 -1.105 1.93625 0 2 C0 1.34 0 0.68 0 0 Z " fill="#A7C9F5" transform="translate(453,936)"/>
<path d="M0 0 C0.33 1.32 0.66 2.64 1 4 C-0.1875 5.8125 -0.1875 5.8125 -2 7 C-3.32 6.67 -4.64 6.34 -6 6 C-4.02 4.02 -2.04 2.04 0 0 Z " fill="#C6DCF8" transform="translate(437,830)"/>
<path d="M0 0 C0.33 0.99 0.66 1.98 1 3 C-0.65 3.33 -2.3 3.66 -4 4 C-4.33 5.65 -4.66 7.3 -5 9 C-5.99 8.67 -6.98 8.34 -8 8 C-5.92856799 3.96615872 -4.03384128 2.07143201 0 0 Z " fill="#468EEA" transform="translate(822,375)"/>
<path d="M0 0 C3.63 0 7.26 0 11 0 C11 0.33 11 0.66 11 1 C7.04 1.66 3.08 2.32 -1 3 C-0.67 2.01 -0.34 1.02 0 0 Z " fill="#D3E4FA" transform="translate(431,940)"/>
<path d="M0 0 C2.0625 0.4375 2.0625 0.4375 4 1 C2 3 2 3 -0.8203125 3.1953125 C-1.91085937 3.17210937 -3.00140625 3.14890625 -4.125 3.125 C-5.22070312 3.10695313 -6.31640625 3.08890625 -7.4453125 3.0703125 C-8.28835938 3.04710937 -9.13140625 3.02390625 -10 3 C-10 2.67 -10 2.34 -10 2 C-9.04287109 1.90912109 -9.04287109 1.90912109 -8.06640625 1.81640625 C-6.82697266 1.69072266 -6.82697266 1.69072266 -5.5625 1.5625 C-4.73878906 1.48128906 -3.91507812 1.40007813 -3.06640625 1.31640625 C-1.01337975 1.21069185 -1.01337975 1.21069185 0 0 Z " fill="#5496EB" transform="translate(447,939)"/>
<path d="M0 0 C0 3 0 3 -1 5 C-1.99 5 -2.98 5 -4 5 C-4.66 6.32 -5.32 7.64 -6 9 C-6 5.82629722 -5.69066658 4.6205332 -4 2 C-1.875 0.75 -1.875 0.75 0 0 Z " fill="#98C0F3" transform="translate(546,878)"/>
<path d="M0 0 C0.33 0 0.66 0 1 0 C1 3.3 1 6.6 1 10 C0.01 10.33 -0.98 10.66 -2 11 C-1.40049704 7.31733897 -0.75241109 3.65456815 0 0 Z " fill="#2B7DE7" transform="translate(573,814)"/>
<path d="M0 0 C3.3 0.99 6.6 1.98 10 3 C10 3.66 10 4.32 10 5 C8.35 5 6.7 5 5 5 C4.67 4.01 4.34 3.02 4 2 C1.98491642 1.26676204 1.98491642 1.26676204 0 1 C0 0.67 0 0.34 0 0 Z " fill="#8CB9F1" transform="translate(499,627)"/>
<path d="M0 0 C5.52677733 -0.19392201 9.75614911 0.2520497 15 2 C15 2.33 15 2.66 15 3 C9.47322267 3.19392201 5.24385089 2.7479503 0 1 C0 0.67 0 0.34 0 0 Z " fill="#418AE9" transform="translate(442,609)"/>
<path d="M0 0 C-1.75 2.0625 -1.75 2.0625 -4 4 C-6.1875 3.875 -6.1875 3.875 -8 3 C-8.33 2.34 -8.66 1.68 -9 1 C-2.25 -1.125 -2.25 -1.125 0 0 Z " fill="#B6D2F6" transform="translate(697,501)"/>
<path d="M0 0 C0.66 0 1.32 0 2 0 C2 0.66 2 1.32 2 2 C3.32 2 4.64 2 6 2 C6.33 3.65 6.66 5.3 7 7 C4.0625 5.75 4.0625 5.75 1 4 C0.125 1.8125 0.125 1.8125 0 0 Z " fill="#90BBF2" transform="translate(662,476)"/>
<path d="M0 0 C0.66 0 1.32 0 2 0 C2 0.66 2 1.32 2 2 C3.32 2 4.64 2 6 2 C6.33 3.65 6.66 5.3 7 7 C4.0625 5.75 4.0625 5.75 1 4 C0.125 1.8125 0.125 1.8125 0 0 Z " fill="#90BBF2" transform="translate(655,469)"/>
<path d="M0 0 C0.66 0 1.32 0 2 0 C2 0.66 2 1.32 2 2 C3.32 2 4.64 2 6 2 C6.33 3.65 6.66 5.3 7 7 C4.0625 5.75 4.0625 5.75 1 4 C0.125 1.8125 0.125 1.8125 0 0 Z " fill="#90BBF2" transform="translate(648,462)"/>
<path d="M0 0 C0.66 0.33 1.32 0.66 2 1 C1.3125 3.4375 1.3125 3.4375 0 6 C-2.625 6.8125 -2.625 6.8125 -5 7 C-3.88820837 3.66462511 -2.52588702 2.36292656 0 0 Z " fill="#6DA5EE" transform="translate(845,350)"/>
<path d="M0 0 C0.66 0.33 1.32 0.66 2 1 C1.3125 3.4375 1.3125 3.4375 0 6 C-2.625 6.8125 -2.625 6.8125 -5 7 C-3.88820837 3.66462511 -2.52588702 2.36292656 0 0 Z " fill="#6DA5EE" transform="translate(852,343)"/>
<path d="M0 0 C0.66 0.33 1.32 0.66 2 1 C1.3125 3.4375 1.3125 3.4375 0 6 C-2.625 6.8125 -2.625 6.8125 -5 7 C-3.88820837 3.66462511 -2.52588702 2.36292656 0 0 Z " fill="#6DA5EE" transform="translate(859,336)"/>
<path d="M0 0 C0.66 0.33 1.32 0.66 2 1 C1.3125 3.4375 1.3125 3.4375 0 6 C-2.625 6.8125 -2.625 6.8125 -5 7 C-3.88820837 3.66462511 -2.52588702 2.36292656 0 0 Z " fill="#6DA5EE" transform="translate(866,329)"/>
<path d="M0 0 C0.99 0.33 1.98 0.66 3 1 C1.38405168 3.04119788 -0.2856382 5.04072937 -2 7 C-2.66 7 -3.32 7 -4 7 C-4 6.01 -4 5.02 -4 4 C-3.01 3.67 -2.02 3.34 -1 3 C-0.67 2.01 -0.34 1.02 0 0 Z " fill="#3986E8" transform="translate(651,420)"/>
</svg>
